<?xml version="1.0" encoding="UTF-8"?>
<svg width="700pt" height="700pt" version="1.1" viewBox="0 0 700 700" xmlns="http://www.w3.org/2000/svg" xmlns:xlink="http://www.w3.org/1999/xlink">
 <defs>
  <symbol id="a" overflow="visible">
   <path d="m39.078-2.3281c-2.0117 1.043-4.1094 1.8281-6.2969 2.3594s-4.4648 0.79688-6.8281 0.79688c-7.0859 0-12.699-1.9766-16.844-5.9375-4.1367-3.957-6.2031-9.3281-6.2031-16.109 0-6.7891 2.0664-12.164 6.2031-16.125 4.1445-3.9688 9.7578-5.9531 16.844-5.9531 2.3633 0 4.6406 0.26562 6.8281 0.79688s4.2852 1.3242 6.2969 2.375v8.7969c-2.0312-1.3828-4.0391-2.3984-6.0156-3.0469-1.9688-0.64453-4.0469-0.96875-6.2344-0.96875-3.9062 0-6.9844 1.2578-9.2344 3.7656-2.2422 2.5-3.3594 5.9531-3.3594 10.359 0 4.3867 1.1172 7.8359 3.3594 10.344 2.25 2.5 5.3281 3.75 9.2344 3.75 2.1875 0 4.2656-0.32031 6.2344-0.96875 1.9766-0.64453 3.9844-1.6602 6.0156-3.0469z"/>
  </symbol>
  <symbol id="h" overflow="visible">
   <path d="m16.031-40.953v9.0625h10.516v7.2812h-10.516v13.531c0 1.4805 0.28906 2.4805 0.875 3 0.59375 0.52344 1.7656 0.78125 3.5156 0.78125h5.2344v7.2969h-8.7344c-4.0312 0-6.8867-0.83594-8.5625-2.5156-1.6797-1.6875-2.5156-4.5391-2.5156-8.5625v-13.531h-5.0781v-7.2812h5.0781v-9.0625z"/>
  </symbol>
  <symbol id="g" overflow="visible">
   <path d="m26.594-27.234v-17.078h10.266v44.312h-10.266v-4.6094c-1.3984 1.875-2.9453 3.25-4.6406 4.125-1.6875 0.875-3.6406 1.3125-5.8594 1.3125-3.9297 0-7.1562-1.5625-9.6875-4.6875-2.5234-3.125-3.7812-7.1445-3.7812-12.062 0-4.9141 1.2578-8.9375 3.7812-12.062 2.5312-3.125 5.7578-4.6875 9.6875-4.6875 2.1953 0 4.1445 0.44531 5.8438 1.3281 1.707 0.88672 3.2578 2.2578 4.6562 4.1094zm-6.7188 20.656c2.1875 0 3.8516-0.79688 5-2.3906 1.1445-1.5938 1.7188-3.9102 1.7188-6.9531 0-3.0391-0.57422-5.3594-1.7188-6.9531-1.1484-1.5938-2.8125-2.3906-5-2.3906-2.168 0-3.8242 0.79688-4.9688 2.3906-1.1484 1.5938-1.7188 3.9141-1.7188 6.9531 0 3.043 0.57031 5.3594 1.7188 6.9531 1.1445 1.5938 2.8008 2.3906 4.9688 2.3906z"/>
  </symbol>
  <symbol id="f" overflow="visible">
   <path d="m21.875-6.5781c2.1758 0 3.8359-0.79688 4.9844-2.3906 1.1562-1.5938 1.7344-3.9102 1.7344-6.9531 0-3.0391-0.57812-5.3594-1.7344-6.9531-1.1484-1.5938-2.8086-2.3906-4.9844-2.3906-2.1875 0-3.8672 0.80469-5.0312 2.4062-1.168 1.6055-1.75 3.918-1.75 6.9375 0 3.0234 0.58203 5.3359 1.75 6.9375 1.1641 1.6055 2.8438 2.4062 5.0312 2.4062zm-6.7812-20.656c1.4062-1.8516 2.9609-3.2227 4.6719-4.1094 1.707-0.88281 3.6719-1.3281 5.8906-1.3281 3.9375 0 7.1641 1.5625 9.6875 4.6875 2.5195 3.125 3.7812 7.1484 3.7812 12.062 0 4.918-1.2617 8.9375-3.7812 12.062-2.5234 3.125-5.75 4.6875-9.6875 4.6875-2.2188 0-4.1836-0.44531-5.8906-1.3281-1.7109-0.88281-3.2656-2.2539-4.6719-4.1094v4.6094h-10.188v-44.312h10.188z"/>
  </symbol>
  <symbol id="e" overflow="visible">
   <path d="m36.734-16.031v2.9062h-23.828c0.23828 2.3867 1.0977 4.1797 2.5781 5.375 1.4883 1.1992 3.5625 1.7969 6.2188 1.7969 2.1445 0 4.3438-0.31641 6.5938-0.95312 2.25-0.63281 4.5625-1.5977 6.9375-2.8906v7.8594c-2.418 0.91797-4.8359 1.6055-7.25 2.0625-2.4062 0.46875-4.8125 0.70312-7.2188 0.70312-5.7734 0-10.262-1.4609-13.469-4.3906-3.1992-2.9375-4.7969-7.0547-4.7969-12.359 0-5.1953 1.5703-9.2852 4.7188-12.266 3.1445-2.9883 7.4688-4.4844 12.969-4.4844 5.0195 0 9.0312 1.5117 12.031 4.5312 3.0078 3.0234 4.5156 7.0586 4.5156 12.109zm-10.469-3.3906c0-1.9375-0.57031-3.5-1.7031-4.6875-1.125-1.1875-2.6016-1.7812-4.4219-1.7812-1.9805 0-3.5898 0.55859-4.8281 1.6719-1.2305 1.1055-1.9961 2.7031-2.2969 4.7969zm-1.8438-27.234h8.0625l-10.5 10.719h-5.5938z"/>
  </symbol>
  <symbol id="d" overflow="visible">
   <path d="m4.9062-31.891h10.188v31.891h-10.188zm0-12.422h10.188v8.3125h-10.188z"/>
  </symbol>
  <symbol id="c" overflow="visible">
   <path d="m4.9062-44.312h10.188v44.312h-10.188z"/>
  </symbol>
  <symbol id="b" overflow="visible">
   <path d="m5.3594-42.516h10.953v34.234h19.266v8.2812h-30.219z"/>
  </symbol>
 </defs>
 <g>
  <path d="m513.33 35c18.641 0 33.879 14.57 34.941 32.945l0.058593 2.0547v420c0 18.641-14.57 33.875-32.941 34.941l-2.0586 0.058594h-326.66c-18.641 0-33.879-14.57-34.941-32.945l-0.058593-2.0547v-322.84c0-8.5078 3.0977-16.699 8.668-23.059l1.582-1.6875 97.164-97.168c6.0195-6.0156 14-9.6172 22.438-10.172l2.3125-0.078125zm11.668 396.67h-350v58.332c0 5.9844 4.5039 10.914 10.305 11.59l1.3633 0.078125h326.66c5.9844 0 10.914-4.5039 11.59-10.309l0.078125-1.3594zm-261.33 23.332c2.5742 0 4.6641 2.0898 4.6641 4.668v14c0 2.5742-2.0898 4.6641-4.6641 4.6641h-14c-2.5781 0-4.668-2.0898-4.668-4.6641v-14c0-2.5781 2.0898-4.668 4.668-4.668zm140 0c2.5742 0 4.6641 2.0898 4.6641 4.668v14c0 2.5742-2.0898 4.6641-4.6641 4.6641h-14c-2.5781 0-4.668-2.0898-4.668-4.6641v-14c0-2.5781 2.0898-4.668 4.668-4.668zm46.664 0c2.5781 0 4.668 2.0898 4.668 4.668v14c0 2.5742-2.0898 4.6641-4.668 4.6641h-14c-2.5742 0-4.6641-2.0898-4.6641-4.6641v-14c0-2.5781 2.0898-4.668 4.6641-4.668zm46.668 0c2.5781 0 4.668 2.0898 4.668 4.668v14c0 2.5742-2.0898 4.6641-4.668 4.6641h-14c-2.5781 0-4.668-2.0898-4.668-4.6641v-14c0-2.5781 2.0898-4.668 4.668-4.668zm-280 0c2.5781 0 4.668 2.0898 4.668 4.668v14c0 2.5742-2.0898 4.6641-4.668 4.6641h-14c-2.5781 0-4.668-2.0898-4.668-4.6641v-14c0-2.5781 2.0898-4.668 4.668-4.668zm93.332 0c2.5781 0 4.668 2.0898 4.668 4.668v14c0 2.5742-2.0898 4.6641-4.668 4.6641h-14c-2.5742 0-4.6641-2.0898-4.6641-4.6641v-14c0-2.5781 2.0898-4.668 4.6641-4.668zm46.668 0c2.5781 0 4.668 2.0898 4.668 4.668v14c0 2.5742-2.0898 4.6641-4.668 4.6641h-14c-2.5781 0-4.668-2.0898-4.668-4.6641v-14c0-2.5781 2.0898-4.668 4.668-4.668zm168-210h-350v163.33h350zm-272.04 29.168c8.6445 0 16.172 1.4805 22.582 4.4453 6.4102 2.9648 11.387 7.0273 14.934 12.18 3.1016 4.5078 4.9219 9.5 5.457 14.977l0.15234 2.375v0.29297l-0.10547 0.73828c-0.14062 0.46484-0.42188 0.875-0.83984 1.2305-0.42188 0.35547-0.875 0.59375-1.3633 0.71484l-0.75 0.085937h-14.133l-0.82031-0.050781c-0.76562-0.097656-1.3633-0.34766-1.8008-0.75-0.58594-0.53516-1.0703-1.4844-1.457-2.8438-1.457-6.0273-3.9844-10.281-7.5781-12.762-3.5938-2.4766-8.3516-3.7188-14.277-3.7188-13.227 0-20.418 7.0547-21.578 21.164l-0.16797 3.3828-0.09375 6.5703 0.023438 11.504 0.10937 5.2148c0.58203 15.555 7.8203 23.332 21.707 23.332 5.8281 0 10.562-1.2383 14.207-3.7188 3.6406-2.4805 6.1914-6.7344 7.6484-12.762 0.38672-1.3594 0.87109-2.3086 1.457-2.8438 0.4375-0.39844 1.0352-0.64844 1.8008-0.75l0.82031-0.050781h14.133l0.83203 0.097656c0.53125 0.12891 1.0039 0.38672 1.4258 0.77734 0.62891 0.58203 0.89844 1.3125 0.80078 2.1875-0.19531 6.418-2.0625 12.203-5.6094 17.355-3.5469 5.1523-8.5234 9.2109-14.934 12.176s-13.938 4.4492-22.582 4.4492c-13.402 0-23.77-3.4297-31.102-10.281-7.3359-6.8555-11.242-16.602-11.73-29.242l-0.11719-6.1172v-13.555l0.11719-6.2852c0.48828-12.445 4.4219-22.141 11.801-29.094 7.3828-6.9531 17.727-10.426 31.031-10.426zm95.137 0c8.0586 0 15.027 1.4102 20.906 4.2266 5.875 2.8203 10.344 6.3438 13.402 10.574s4.6875 8.4336 4.8789 12.613c0 0.77734-0.28906 1.4844-0.875 2.1172-0.38672 0.42188-0.83984 0.69922-1.3594 0.83984l-0.82422 0.10547h-13.84l-1.0117-0.070312c-1.5938-0.24609-2.7109-1.0938-3.3594-2.5547-0.48438-3.1094-2.3789-5.7109-5.6836-7.8008-3.3008-2.0898-7.3789-3.1367-12.234-3.1367-5.3438 0-9.543 1.0234-12.602 3.0625-3.0625 2.043-4.5898 5.0078-4.5898 8.8984 0 2.625 0.77734 4.8125 2.3281 6.5625 1.5547 1.75 3.9844 3.2812 7.2852 4.5938 0.94531 0.375 2.0117 0.76172 3.1992 1.1641l3.9375 1.25 4.6719 1.3359c0.84375 0.22656 1.7148 0.46094 2.6172 0.69531 8.6406 1.9453 15.516 4.1328 20.613 6.5625 5.0977 2.4336 8.8633 5.4961 11.289 9.1875 2.4297 3.6953 3.6445 8.4102 3.6445 14.148 0 6.3164-1.7266 11.785-5.1719 16.406-3.4492 4.6172-8.3047 8.1406-14.57 10.57-6.2656 2.4336-13.523 3.6484-21.781 3.6484-8.7383 0-16.219-1.3125-22.434-3.9375-6.2148-2.625-10.926-6.0781-14.133-10.355-3.2031-4.2773-4.9062-8.9453-5.0977-14 0-0.77734 0.28906-1.4844 0.875-2.1133 0.38672-0.42188 0.83984-0.70312 1.3594-0.84375l0.82422-0.10547h13.258l1.0039 0.082031c0.625 0.10547 1.1641 0.32422 1.6172 0.64844 0.67969 0.48438 1.3125 1.1641 1.8945 2.0391 0.97266 3.3086 3.1797 6.0781 6.6289 8.3125 3.4492 2.2383 8.1836 3.3555 14.203 3.3555 6.8008 0 11.922-1.1406 15.371-3.4258 3.4492-2.2852 5.1719-5.4219 5.1719-9.4062 0-2.625-0.875-4.8125-2.6211-6.5625-1.75-1.75-4.3945-3.2812-7.9414-4.5938l-3.4609-1.1914-4.3047-1.3203-5.1484-1.4531c-0.92969-0.25391-1.8945-0.51172-2.8906-0.77734-11.461-2.7227-19.863-6.3164-25.207-10.789-5.3398-4.4727-8.0117-10.891-8.0117-19.25 0-5.6406 1.5547-10.672 4.6641-15.094 3.1055-4.4258 7.5508-7.9023 13.328-10.43 5.7812-2.5273 12.504-3.7891 20.18-3.7891zm67.742 1.457 0.90234 0.0625c0.85547 0.12891 1.5742 0.44922 2.1602 0.95703 0.51562 0.45312 0.92578 0.92969 1.2266 1.4258l0.375 0.76172 24.32 74.645 24.484-74.645 0.29297-0.76172c0.25781-0.49609 0.64453-0.97266 1.1641-1.4258 0.58203-0.50781 1.3008-0.82812 2.1562-0.95703l0.90234-0.0625h13.113l0.75 0.097656c0.48828 0.12891 0.94141 0.38672 1.3633 0.77734 0.41797 0.39062 0.69922 0.84375 0.83984 1.3594l0.10547 0.82812-0.29297 1.3125-31.031 93.625-0.47266 1.082c-0.87891 1.668-2.2344 2.6406-4.0586 2.918l-1.1484 0.082031h-16.172l-1.1875-0.082031c-1.8711-0.27734-3.2266-1.25-4.0586-2.918l-0.4375-1.082-31.176-93.625-0.082032-0.33984c-0.042968-0.25781-0.0625-0.58203-0.0625-0.97266 0-0.875 0.28906-1.6055 0.875-2.1875 0.38672-0.39062 0.83984-0.64844 1.3594-0.77734l0.82422-0.097656zm97.488-217.29h-221.66v81.668c0 18.641-14.57 33.875-32.945 34.941l-2.0547 0.058594h-81.668v46.668h350v-151.67c0-5.9844-4.5039-10.914-10.305-11.59zm-245 10.652-82.68 82.684h71.016c5.9805 0 10.914-4.5039 11.586-10.309l0.078125-1.3594z" fill-rule="evenodd"/>
  <use x="70" y="735" xlink:href="#a"/>
  <use x="220.503906" y="735" xlink:href="#h"/>
  <use x="287.953125" y="735" xlink:href="#g"/>
  <use x="350.015625" y="735" xlink:href="#f"/>
  <use x="450.105469" y="735" xlink:href="#a"/>
  <use x="492.917969" y="735" xlink:href="#e"/>
  <use x="567.058594" y="735" xlink:href="#d"/>
  <use x="587.054688" y="735" xlink:href="#c"/>
  <use x="666.917969" y="735" xlink:href="#b"/>
 </g>
</svg>
